PathFileType	4	(X/Y/Z)	/home/nbianco/projects/addbio/data/OpenCap2022/Processed/subject11//results/MarkerData/DJ5.trc
DataRate	CameraRate	NumFrames	NumMarkers	Units	OrigDataRate	OrigDataStartFrame	OrigNumFrames
100	100	8	51	m	100	0	130
Frame#	Time	C7			L.ASIS			L.PSIS			L_5meta			L_HJC			L_HJC_reg			L_Shoulder			L_Sternum			L_ankle			L_calc			L_elbow_lat			L_elbow_med			L_forearm			L_humerus			L_knee			L_sh2			L_sh3			L_shank_antsup			L_thigh1			L_thigh2			L_thigh3			L_thigh4			L_toe			L_wrist_radius			L_wrist_ulna			R_HJC			R_HJC_reg			R_Shoulder			R_Sternum			R_elbow_lat			R_elbow_med			R_forearm			R_humerus			R_wrist_radius			R_wrist_ulna			r.ASIS			r.PSIS			r_5meta			r_ankle			r_calc			r_knee			r_sh2			r_sh3			r_sh4			r_shank_antsup			r_thigh1			r_thigh2			r_thigh3			r_thigh4			r_thigh5			r_toe		
		X1	Y1	Z1	X2	Y2	Z2	X3	Y3	Z3	X4	Y4	Z4	X5	Y5	Z5	X6	Y6	Z6	X7	Y7	Z7	X8	Y8	Z8	X9	Y9	Z9	X10	Y10	Z10	X11	Y11	Z11	X12	Y12	Z12	X13	Y13	Z13	X14	Y14	Z14	X15	Y15	Z15	X16	Y16	Z16	X17	Y17	Z17	X18	Y18	Z18	X19	Y19	Z19	X20	Y20	Z20	X21	Y21	Z21	X22	Y22	Z22	X23	Y23	Z23	X24	Y24	Z24	X25	Y25	Z25	X26	Y26	Z26	X27	Y27	Z27	X28	Y28	Z28	X29	Y29	Z29	X30	Y30	Z30	X31	Y31	Z31	X32	Y32	Z32	X33	Y33	Z33	X34	Y34	Z34	X35	Y35	Z35	X36	Y36	Z36	X37	Y37	Z37	X38	Y38	Z38	X39	Y39	Z39	X40	Y40	Z40	X41	Y41	Z41	X42	Y42	Z42	X43	Y43	Z43	X44	Y44	Z44	X45	Y45	Z45	X46	Y46	Z46	X47	Y47	Z47	X48	Y48	Z48	X49	Y49	Z49	X50	Y50	Z50	X51	Y51	Z51

1	1.18	-0.244995	1.57832	-0.628255	-0.396289	1.05248	-0.76087	-0.562642	1.16051	-0.667101	-0.170111	0.0405014	-0.862281	-0.498141	0.996558	-0.73249	-0.485381	1.00741	-0.697998	-0.205713	1.53489	-0.788665	-0.164613	1.43521	-0.658921	-0.278597	0.168517	-0.841789	-0.331384	0.161627	-0.776077	-0.541372	1.51636	-0.953203	-0.57073	1.52978	-0.876004	-0.603047	1.35293	-0.921649	-0.339953	1.50978	-0.907057	-0.32764	0.612293	-0.852983	-0.350155	0.505155	-0.86724	-0.311653	0.39057	-0.888029	-0.261899	0.522298	-0.853855	-0.361279	0.876271	-0.85007	-0.293553	0.757072	-0.852417	-0.458915	0.819925	-0.867815	-0.388595	0.700384	-0.869472	-0.118265	0.0712789	-0.813151	-0.670973	1.25761	-0.931871	-0.687416	1.27166	-0.976319	-0.468415	1.01394	-0.525221	-0.474361	1.01666	-0.521514	-0.202465	1.51038	-0.455343	-0.160209	1.43625	-0.610747	-0.53797	1.4882	-0.309794	-0.571983	1.50046	-0.389469	-0.636708	1.33475	-0.321593	-0.331854	1.46398	-0.354212	-0.727248	1.25388	-0.325653	-0.740301	1.27239	-0.284977	-0.367569	1.06394	-0.499657	-0.552794	1.16418	-0.568442	-0.138319	0.0547356	-0.396844	-0.236116	0.183371	-0.42056	-0.302393	0.176384	-0.47704	-0.266092	0.634786	-0.434987	-0.18372	0.414472	-0.448134	-0.27001	0.507343	-0.389443	-0.238522	0.394663	-0.386487	-0.209215	0.526169	-0.436414	-0.283174	0.882081	-0.478287	-0.239639	0.776665	-0.485364	-0.246542	0.748444	-0.423954	-0.349232	0.846415	-0.391927	-0.297735	0.740837	-0.402432	-0.0865635	0.0741849	-0.459813
2	1.19	-0.234219	1.54496	-0.629448	-0.389494	1.0217	-0.760952	-0.556425	1.12917	-0.666907	-0.16734	0.0257589	-0.862787	-0.49142	0.965525	-0.732623	-0.478348	0.976533	-0.698338	-0.195518	1.50067	-0.789866	-0.154613	1.40106	-0.65963	-0.274959	0.141485	-0.842474	-0.333606	0.139049	-0.777079	-0.533194	1.48723	-0.949689	-0.561139	1.50118	-0.871786	-0.59751	1.3249	-0.915143	-0.331217	1.47752	-0.906347	-0.311148	0.586291	-0.857345	-0.331674	0.479585	-0.872202	-0.294865	0.363769	-0.892705	-0.24293	0.494879	-0.85863	-0.350757	0.84998	-0.851716	-0.278513	0.733465	-0.856615	-0.446223	0.790255	-0.870264	-0.371456	0.673888	-0.873951	-0.116615	0.0546445	-0.808371	-0.667377	1.23073	-0.923133	-0.68415	1.24447	-0.967778	-0.467141	0.985578	-0.521943	-0.462204	0.98362	-0.52583	-0.191705	1.4773	-0.456349	-0.150145	1.40229	-0.611523	-0.528667	1.46206	-0.313861	-0.561209	1.47547	-0.393828	-0.63183	1.31144	-0.328374	-0.3226	1.43413	-0.355648	-0.724859	1.23351	-0.333835	-0.737542	1.25204	-0.293199	-0.361298	1.03365	-0.500568	-0.54679	1.13305	-0.568377	-0.13837	0.0343997	-0.398671	-0.23716	0.158488	-0.421521	-0.304331	0.153453	-0.476864	-0.247572	0.611019	-0.433781	-0.169819	0.385789	-0.449282	-0.251105	0.481159	-0.388413	-0.223883	0.367572	-0.386667	-0.190298	0.498731	-0.435242	-0.271759	0.859401	-0.478788	-0.222179	0.756617	-0.484461	-0.229477	0.727474	-0.423199	-0.33657	0.820556	-0.392221	-0.280427	0.71653	-0.404254	-0.0861589	0.0575833	-0.463574
3	1.2	-0.223492	1.51078	-0.630602	-0.383577	0.99028	-0.760883	-0.551351	1.09761	-0.666845	-0.169242	0.0220525	-0.862744	-0.485709	0.934016	-0.732578	-0.472389	0.945221	-0.698496	-0.185036	1.46547	-0.791466	-0.144357	1.36628	-0.660364	-0.288185	0.120039	-0.835458	-0.345059	0.110454	-0.773235	-0.524802	1.45595	-0.94632	-0.551221	1.47067	-0.867787	-0.591904	1.29499	-0.908834	-0.32238	1.44357	-0.905735	-0.291435	0.561678	-0.862599	-0.311977	0.457773	-0.880411	-0.283585	0.340162	-0.897335	-0.224112	0.466753	-0.862103	-0.341054	0.823866	-0.855004	-0.264163	0.710253	-0.8625	-0.434047	0.760408	-0.872631	-0.354795	0.647584	-0.878949	-0.121399	0.0508602	-0.804359	-0.663942	1.20225	-0.914567	-0.680937	1.2157	-0.959461	-0.462567	0.954828	-0.521238	-0.45539	0.95182	-0.527102	-0.180987	1.44324	-0.456887	-0.139786	1.36783	-0.612285	-0.519465	1.43397	-0.317884	-0.550402	1.44874	-0.397985	-0.626008	1.28711	-0.333664	-0.313418	1.4025	-0.357321	-0.722665	1.21189	-0.3419	-0.734925	1.23024	-0.301657	-0.356037	1.00291	-0.501156	-0.541812	1.10151	-0.56813	-0.141764	0.0276379	-0.39896	-0.248795	0.138574	-0.424803	-0.317803	0.12668	-0.47812	-0.225471	0.58896	-0.432761	-0.162241	0.357945	-0.45301	-0.232529	0.458744	-0.388101	-0.215623	0.343623	-0.388762	-0.171865	0.472149	-0.435965	-0.259869	0.837455	-0.477764	-0.204049	0.737927	-0.482295	-0.211075	0.708192	-0.421302	-0.323106	0.795129	-0.391547	-0.261561	0.693977	-0.403844	-0.0918504	0.0535581	-0.466657
4	1.21	-0.212654	1.47594	-0.631675	-0.378731	0.958654	-0.760556	-0.54754	1.06568	-0.667349	-0.173064	0.0250417	-0.862046	-0.480833	0.902098	-0.732373	-0.467373	0.91353	-0.698377	-0.174186	1.42952	-0.793386	-0.133742	1.33114	-0.661147	-0.309286	0.105469	-0.822048	-0.357551	0.0816918	-0.765519	-0.516254	1.42237	-0.943028	-0.540941	1.43821	-0.864128	-0.586286	1.26329	-0.902628	-0.313392	1.40796	-0.905297	-0.268521	0.539839	-0.86859	-0.293107	0.439992	-0.888686	-0.277216	0.320361	-0.898319	-0.207081	0.440595	-0.863086	-0.332034	0.798746	-0.85989	-0.250775	0.688178	-0.86936	-0.422704	0.731559	-0.874893	-0.339144	0.622154	-0.883555	-0.128477	0.0541671	-0.801323	-0.660561	1.17219	-0.906371	-0.67772	1.1854	-0.951468	-0.457664	0.923259	-0.521242	-0.450897	0.9202	-0.527035	-0.170202	1.40837	-0.456948	-0.129039	1.33302	-0.612966	-0.510301	1.40389	-0.321872	-0.539587	1.42018	-0.401988	-0.619842	1.2615	-0.338399	-0.304324	1.3692	-0.359073	-0.720501	1.1889	-0.350051	-0.732388	1.20701	-0.310203	-0.351616	0.972033	-0.501223	-0.538033	1.06958	-0.567789	-0.146203	0.0291602	-0.398826	-0.263324	0.123459	-0.429756	-0.334968	0.0999438	-0.481554	-0.200685	0.569747	-0.432605	-0.159238	0.333207	-0.458007	-0.21619	0.440519	-0.389751	-0.212349	0.324017	-0.392209	-0.155491	0.448112	-0.438582	-0.248472	0.816935	-0.475507	-0.186913	0.721098	-0.479686	-0.192562	0.690942	-0.418962	-0.309634	0.771071	-0.389943	-0.242269	0.673785	-0.401748	-0.0999126	0.0559439	-0.469015
5	1.22	-0.201367	1.44079	-0.632615	-0.375466	0.927221	-0.759526	-0.545063	1.034	-0.66884	-0.175595	0.0293298	-0.860571	-0.477119	0.870155	-0.73203	-0.463551	0.882151	-0.697599	-0.162878	1.39327	-0.795556	-0.122678	1.29596	-0.661895	-0.31999	0.0965595	-0.809706	-0.363067	0.064192	-0.756958	-0.507546	1.38631	-0.939669	-0.53022	1.40382	-0.860953	-0.580701	1.23	-0.8962	-0.304102	1.37087	-0.905109	-0.246102	0.522219	-0.874445	-0.276162	0.425802	-0.892817	-0.269048	0.304654	-0.89505	-0.191432	0.420987	-0.862446	-0.324335	0.775905	-0.865456	-0.239333	0.668758	-0.876573	-0.41316	0.70524	-0.876837	-0.325496	0.599028	-0.886747	-0.132449	0.0571986	-0.798598	-0.657135	1.14055	-0.898628	-0.674471	1.15358	-0.943776	-0.454258	0.892246	-0.521061	-0.447312	0.888726	-0.526646	-0.15915	1.37301	-0.456717	-0.117851	1.29806	-0.613539	-0.501001	1.3718	-0.325741	-0.52868	1.38981	-0.405876	-0.614337	1.2341	-0.344278	-0.295207	1.33453	-0.360804	-0.71807	1.16443	-0.358522	-0.729708	1.18245	-0.318625	-0.348085	0.941469	-0.501043	-0.535431	1.03786	-0.567915	-0.149166	0.0314642	-0.399585	-0.271708	0.111352	-0.43523	-0.345673	0.0792426	-0.486959	-0.17839	0.553122	-0.433086	-0.15601	0.313229	-0.462545	-0.203382	0.42448	-0.392836	-0.20905	0.307586	-0.395924	-0.14227	0.427839	-0.441481	-0.239364	0.797891	-0.472819	-0.173313	0.705527	-0.477218	-0.177019	0.674637	-0.416818	-0.29847	0.748998	-0.387716	-0.225941	0.655351	-0.39915	-0.105031	0.0575904	-0.470877
6	1.23	-0.189168	1.40577	-0.633459	-0.373943	0.896154	-0.757706	-0.543423	1.00458	-0.670783	-0.175948	0.0325593	-0.858551	-0.475472	0.839427	-0.731529	-0.461676	0.852461	-0.696053	-0.15107	1.35707	-0.797875	-0.111244	1.26084	-0.662536	-0.312744	0.0921297	-0.8055	-0.362381	0.0622187	-0.750371	-0.498417	1.348	-0.93633	-0.51899	1.36764	-0.858332	-0.574949	1.19517	-0.88957	-0.294337	1.3326	-0.905189	-0.227778	0.510519	-0.879407	-0.25877	0.416208	-0.893723	-0.253355	0.294537	-0.892676	-0.174123	0.410333	-0.863025	-0.319222	0.75724	-0.870569	-0.23019	0.654794	-0.884176	-0.405695	0.682641	-0.878108	-0.313301	0.58051	-0.888525	-0.131647	0.0577659	-0.796019	-0.653524	1.10737	-0.891283	-0.671049	1.12028	-0.936428	-0.453054	0.863037	-0.520663	-0.444994	0.85837	-0.526274	-0.147674	1.33747	-0.456464	-0.106294	1.26302	-0.614095	-0.491395	1.33791	-0.329334	-0.517567	1.35791	-0.409475	-0.609815	1.20469	-0.351737	-0.2858	1.29879	-0.362698	-0.715036	1.13854	-0.3672	-0.726482	1.15668	-0.326773	-0.345877	0.911593	-0.501095	-0.53339	1.00811	-0.568972	-0.150352	0.0326465	-0.400936	-0.273063	0.102116	-0.440502	-0.347841	0.0678672	-0.492432	-0.163527	0.537363	-0.433259	-0.149325	0.298083	-0.466364	-0.192669	0.409424	-0.395388	-0.202263	0.292963	-0.3997	-0.130942	0.411665	-0.443013	-0.233151	0.77992	-0.469568	-0.163651	0.690287	-0.474064	-0.166368	0.657794	-0.414612	-0.291288	0.728188	-0.385498	-0.214959	0.63724	-0.396787	-0.106047	0.0571358	-0.472512
7	1.24	-0.175644	1.37128	-0.634352	-0.373231	0.866344	-0.755806	-0.541524	0.979304	-0.671857	-0.175154	0.0343479	-0.856958	-0.475833	0.81172	-0.730809	-0.461758	0.825648	-0.69433	-0.13878	1.32095	-0.800193	-0.0997888	1.22555	-0.663154	-0.299291	0.0924651	-0.807763	-0.360438	0.0679229	-0.746647	-0.488472	1.30801	-0.933487	-0.507268	1.32997	-0.856282	-0.568645	1.15877	-0.883459	-0.284002	1.29348	-0.905442	-0.211838	0.505815	-0.883607	-0.239829	0.413083	-0.896027	-0.235756	0.29167	-0.894284	-0.155224	0.406202	-0.866088	-0.316799	0.74436	-0.874108	-0.222036	0.648438	-0.890694	-0.398835	0.664587	-0.87877	-0.300346	0.568551	-0.89015	-0.128516	0.0574123	-0.794623	-0.649446	1.07281	-0.884421	-0.66682	1.08572	-0.929976	-0.453695	0.836556	-0.520028	-0.444363	0.83044	-0.525741	-0.135708	1.30196	-0.456424	-0.0946603	1.22786	-0.614769	-0.481297	1.30259	-0.3326	-0.506144	1.32497	-0.412579	-0.605705	1.17368	-0.359705	-0.275835	1.26238	-0.364986	-0.711132	1.11148	-0.375542	-0.722235	1.1297	-0.334537	-0.34508	0.882944	-0.501004	-0.531036	0.982194	-0.570198	-0.150766	0.0343771	-0.401984	-0.271627	0.0981556	-0.44486	-0.346274	0.0650776	-0.496199	-0.153335	0.523471	-0.433254	-0.1403	0.288321	-0.469487	-0.181443	0.399056	-0.397295	-0.193572	0.283142	-0.403432	-0.11912	0.400676	-0.443859	-0.2286	0.764181	-0.465255	-0.155427	0.677442	-0.47005	-0.158428	0.642048	-0.412762	-0.286459	0.708168	-0.384136	-0.206945	0.620039	-0.395893	-0.105433	0.0565671	-0.473985
8	1.25	-0.160775	1.33769	-0.635496	-0.372741	0.839926	-0.754514	-0.538587	0.957919	-0.671415	-0.174449	0.0346269	-0.85665	-0.477005	0.788236	-0.729895	-0.462825	0.802217	-0.693301	-0.126114	1.28473	-0.80245	-0.0888101	1.18991	-0.663835	-0.292725	0.0950815	-0.810753	-0.359761	0.0717615	-0.745477	-0.47764	1.26702	-0.931625	-0.49515	1.29128	-0.854784	-0.561505	1.12102	-0.878558	-0.273107	1.25377	-0.905687	-0.195224	0.505715	-0.887332	-0.223505	0.415007	-0.900227	-0.226303	0.294004	-0.897433	-0.139558	0.403681	-0.870442	-0.315828	0.736362	-0.874617	-0.213877	0.647889	-0.893091	-0.391326	0.650878	-0.879488	-0.286215	0.562411	-0.89301	-0.126408	0.0571924	-0.794935	-0.644526	1.03709	-0.878335	-0.660957	1.05009	-0.925123	-0.455155	0.813179	-0.519091	-0.445586	0.806343	-0.52498	-0.123239	1.26659	-0.456724	-0.0833926	1.19248	-0.61562	-0.470539	1.26642	-0.335543	-0.494185	1.29144	-0.415261	-0.600844	1.14173	-0.367098	-0.265205	1.22582	-0.367554	-0.706105	1.08351	-0.383071	-0.716604	1.10145	-0.341794	-0.345724	0.85694	-0.500069	-0.528224	0.960405	-0.57017	-0.150815	0.0361665	-0.402585	-0.269731	0.0996535	-0.447073	-0.344963	0.0671675	-0.497844	-0.140663	0.51553	-0.43372	-0.13151	0.28423	-0.470798	-0.168751	0.396769	-0.399117	-0.185649	0.281231	-0.405672	-0.106186	0.395417	-0.445274	-0.224883	0.752794	-0.461349	-0.14701	0.670536	-0.467433	-0.149763	0.631698	-0.412791	-0.281097	0.690652	-0.384164	-0.19762	0.607007	-0.397542	-0.104753	0.0566094	-0.474949
